<?xml version="1.0" encoding="UTF-8" standalone="no"?>
<svg
   width="160mm"
   height="70mm"
   viewBox="0 0 160 70"
   version="1.1"
   id="svg8"
   sodipodi:docname="rxtx-research-logo-path.svg"
   inkscape:version="1.2.2 (b0a8486541, 2022-12-01)"
   xmlns:inkscape="http://www.inkscape.org/namespaces/inkscape"
   xmlns:sodipodi="http://sodipodi.sourceforge.net/DTD/sodipodi-0.dtd"
   xmlns="http://www.w3.org/2000/svg"
   xmlns:svg="http://www.w3.org/2000/svg"
   xmlns:rdf="http://www.w3.org/1999/02/22-rdf-syntax-ns#"
   xmlns:cc="http://creativecommons.org/ns#"
   xmlns:dc="http://purl.org/dc/elements/1.1/">
  <sodipodi:namedview
     id="namedview13"
     pagecolor="#ffffff"
     bordercolor="#000000"
     borderopacity="0.25"
     inkscape:showpageshadow="2"
     inkscape:pageopacity="0.0"
     inkscape:pagecheckerboard="0"
     inkscape:deskcolor="#d1d1d1"
     inkscape:document-units="mm"
     showgrid="false"
     inkscape:zoom="2.3901886"
     inkscape:cx="279.89423"
     inkscape:cy="112.75261"
     inkscape:window-width="2541"
     inkscape:window-height="1205"
     inkscape:window-x="1585"
     inkscape:window-y="116"
     inkscape:window-maximized="0"
     inkscape:current-layer="layer1" />
  <defs
     id="defs2" />
  <metadata
     id="metadata5">
    <rdf:RDF>
      <cc:Work
         rdf:about="">
        <dc:format>image/svg+xml</dc:format>
        <dc:type
           rdf:resource="http://purl.org/dc/dcmitype/StillImage" />
      </cc:Work>
    </rdf:RDF>
  </metadata>
  <g
     id="layer1"
     transform="translate(0,-209.5)">
    <g
       aria-label="RxTx"
       id="text12"
       style="font-size:38.1px;line-height:1.25;letter-spacing:0px;word-spacing:0px;fill:#d52b1e;stroke-width:0.264583">
      <path
         d="m 74.305304,257.79691 h -4.3053 v -26.5938 h 11.468099 q 3.5814,0 5.6388,2.1717 2.0574,2.1336 2.0574,5.8293 0,2.8575 -1.3335,4.7625 -1.2954,1.8669 -3.8481,2.6289 l 5.7531,11.2014 h -4.8006 l -5.334,-10.7442 h -5.295899 z m 6.857999,-14.3637 q 1.6383,0 2.5527,-0.8382 0.9144,-0.8763 0.9144,-2.4765 v -1.8288 q 0,-1.6002 -0.9144,-2.4384 -0.9144,-0.8763 -2.5527,-0.8763 h -6.857999 v 8.4582 z"
         style="font-weight:500;font-family:'IBM Plex Sans';-inkscape-font-specification:'IBM Plex Sans Medium'"
         id="path327" />
      <path
         d="m 92.440928,257.79691 6.9723,-10.0203 -6.7818,-9.7917 h 4.8006 l 4.457702,6.8961 h 0.1143 l 4.572,-6.8961 h 4.4196 l -6.7818,9.7536 6.8961,10.0584 h -4.8006 l -4.572,-7.2009 h -0.1143 l -4.762502,7.2009 z"
         style="font-weight:500;font-family:'IBM Plex Sans';-inkscape-font-specification:'IBM Plex Sans Medium'"
         id="path329" />
      <path
         d="m 123.34003,235.01311 v 22.7838 h -4.3053 v -22.7838 h -7.9248 v -3.81 h 20.1549 v 3.81 z"
         style="font-weight:500;font-family:'IBM Plex Sans';-inkscape-font-specification:'IBM Plex Sans Medium'"
         id="path331" />
      <path
         d="m 131.26479,257.79691 6.9723,-10.0203 -6.7818,-9.7917 h 4.8006 l 4.4577,6.8961 h 0.1143 l 4.572,-6.8961 h 4.4196 l -6.7818,9.7536 6.8961,10.0584 h -4.8006 l -4.572,-7.2009 h -0.1143 l -4.7625,7.2009 z"
         style="font-weight:500;font-family:'IBM Plex Sans';-inkscape-font-specification:'IBM Plex Sans Medium'"
         id="path333" />
    </g>
    <g
       id="g4764"
       transform="matrix(0.22913589,-0.13229166,0.13229166,0.22913589,-7.8763003,236.99365)">
      <path
         id="path4744"
         style="fill:none;stroke:#d52b1e;stroke-width:15.1181;stroke-linecap:round;stroke-linejoin:round;stroke-miterlimit:10;stroke-dasharray:none;stroke-opacity:1"
         d="M 226.3858,98 169.6929,-0.195267 H 56.307098 L -0.385803,98 56.307098,196.19527 H 169.6929 Z" />
      <path
         id="path4746"
         style="fill:none;stroke:#d52b1e;stroke-width:15.1181;stroke-linecap:round;stroke-linejoin:round;stroke-miterlimit:10;stroke-dasharray:none;stroke-opacity:1"
         d="M 226.3858,98 H -0.385803" />
      <path
         id="path4748"
         style="fill:none;stroke:#d52b1e;stroke-width:15.1181;stroke-linecap:round;stroke-linejoin:round;stroke-miterlimit:10;stroke-dasharray:none;stroke-opacity:1"
         d="M 169.6929,-0.195267 56.307098,196.19527" />
      <path
         id="path4750"
         style="fill:none;stroke:#d52b1e;stroke-width:15.1181;stroke-linecap:round;stroke-linejoin:round;stroke-miterlimit:10;stroke-dasharray:none;stroke-opacity:1"
         d="M 56.307098,-0.195267 169.6929,196.19527" />
    </g>
    <g
       aria-label="Research"
       id="text12-3"
       style="font-size:19.05px;line-height:1.25;letter-spacing:0px;word-spacing:0px;fill:#d52b1e;stroke-width:0.264583">
      <path
         d="m 72.514597,276.55212 h -2.5146 v -13.2969 h 6.000749 q 0.9144,0 1.6383,0.28575 0.7239,0.28575 1.2192,0.8382 0.51435,0.5334 0.78105,1.2954 0.28575,0.762 0.28575,1.69545 0,1.3716 -0.62865,2.3622 -0.6096,0.9906 -1.84785,1.4097 l 2.72415,5.4102 h -2.80035 l -2.4765,-5.12445 h -2.381249 z m 3.238499,-7.239 q 0.7239,0 1.143,-0.381 0.4191,-0.40005 0.4191,-1.12395 v -0.8763 q 0,-0.7239 -0.4191,-1.1049 -0.4191,-0.381 -1.143,-0.381 h -3.238499 v 3.86715 z"
         style="font-weight:600;font-family:'IBM Plex Sans';-inkscape-font-specification:'IBM Plex Sans Semi-Bold'"
         id="path336" />
      <path
         d="m 86.230599,276.78072 q -1.1049,0 -1.981199,-0.36195 -0.85725,-0.381 -1.46685,-1.04775 -0.59055,-0.6858 -0.9144,-1.6383 -0.32385,-0.97155 -0.32385,-2.1717 0,-1.1811 0.3048,-2.1336 0.32385,-0.9525 0.9144,-1.61925 0.59055,-0.6858 1.4478,-1.04775 0.857249,-0.381 1.943099,-0.381 1.16205,0 2.0193,0.40005 0.85725,0.40005 1.4097,1.08585 0.55245,0.6858 0.81915,1.6002 0.28575,0.89535 0.28575,1.92405 v 0.8001 H 84.07795 v 0.24765 q 0,1.08585 0.609599,1.7526 0.6096,0.6477 1.80975,0.6477 0.9144,0 1.4859,-0.381 0.59055,-0.381 1.04775,-0.97155 l 1.31445,1.46685 q -0.6096,0.85725 -1.6764,1.35255 -1.04775,0.47625 -2.4384,0.47625 z m -0.0381,-8.5725 q -0.97155,0 -1.54305,0.6477 -0.571499,0.6477 -0.571499,1.6764 v 0.1524 h 4.076699 v -0.17145 q 0,-1.0287 -0.51435,-1.65735 -0.4953,-0.6477 -1.4478,-0.6477 z"
         style="font-weight:600;font-family:'IBM Plex Sans';-inkscape-font-specification:'IBM Plex Sans Semi-Bold'"
         id="path338" />
      <path
         d="m 96.098509,276.78072 q -1.42875,0 -2.4003,-0.47625 -0.97155,-0.4953 -1.7145,-1.35255 l 1.4859,-1.4478 q 0.55245,0.62865 1.20015,0.9906 0.66675,0.36195 1.524,0.36195 0.8763,0 1.2573,-0.3048 0.40005,-0.3048 0.40005,-0.8382 0,-0.43815 -0.28575,-0.6858 -0.2667,-0.2667 -0.93345,-0.36195 l -0.9906,-0.13335 q -1.61925,-0.20955 -2.4765,-0.9144 -0.8382,-0.7239 -0.8382,-2.0955 0,-0.7239 0.2667,-1.2954 0.2667,-0.59055 0.762,-0.9906 0.4953,-0.4191 1.1811,-0.62865 0.70485,-0.2286 1.5621,-0.2286 0.7239,0 1.27635,0.1143 0.5715,0.0953 1.0287,0.3048 0.4572,0.1905 0.8382,0.4953 0.381,0.28575 0.74295,0.6477 l -1.42875,1.42875 q -0.43815,-0.4572 -1.04775,-0.762 -0.6096,-0.3048 -1.3335,-0.3048 -0.8001,0 -1.16205,0.28575 -0.3429,0.28575 -0.3429,0.74295 0,0.4953 0.28575,0.762 0.3048,0.24765 1.00965,0.36195 l 1.00965,0.13335 q 3.219451,0.4572 3.219451,2.9337 0,0.7239 -0.304801,1.3335 -0.28575,0.59055 -0.81915,1.0287 -0.5334,0.4191 -1.2954,0.66675 -0.74295,0.2286 -1.6764,0.2286 z"
         style="font-weight:600;font-family:'IBM Plex Sans';-inkscape-font-specification:'IBM Plex Sans Semi-Bold'"
         id="path340" />
      <path
         d="m 106.36647,276.78072 q -1.1049,0 -1.9812,-0.36195 -0.85725,-0.381 -1.46685,-1.04775 -0.59055,-0.6858 -0.9144,-1.6383 -0.32385,-0.97155 -0.32385,-2.1717 0,-1.1811 0.3048,-2.1336 0.32385,-0.9525 0.9144,-1.61925 0.59055,-0.6858 1.4478,-1.04775 0.85725,-0.381 1.9431,-0.381 1.16205,0 2.0193,0.40005 0.85725,0.40005 1.4097,1.08585 0.55245,0.6858 0.81915,1.6002 0.28575,0.89535 0.28575,1.92405 v 0.8001 h -6.61035 v 0.24765 q 0,1.08585 0.6096,1.7526 0.6096,0.6477 1.80975,0.6477 0.9144,0 1.4859,-0.381 0.59055,-0.381 1.04775,-0.97155 l 1.31445,1.46685 q -0.6096,0.85725 -1.6764,1.35255 -1.04775,0.47625 -2.4384,0.47625 z m -0.0381,-8.5725 q -0.97155,0 -1.54305,0.6477 -0.5715,0.6477 -0.5715,1.6764 v 0.1524 h 4.0767 v -0.17145 q 0,-1.0287 -0.51435,-1.65735 -0.4953,-0.6477 -1.4478,-0.6477 z"
         style="font-weight:600;font-family:'IBM Plex Sans';-inkscape-font-specification:'IBM Plex Sans Semi-Bold'"
         id="path342" />
      <path
         d="m 120.29203,276.55212 q -0.8001,0 -1.27635,-0.4572 -0.4572,-0.47625 -0.5715,-1.2573 h -0.1143 q -0.24765,0.97155 -1.00965,1.46685 -0.762,0.47625 -1.88595,0.47625 -1.524,0 -2.34315,-0.8001 -0.81915,-0.8001 -0.81915,-2.1336 0,-1.54305 1.1049,-2.286 1.1049,-0.762 3.14325,-0.762 h 1.69545 v -0.7239 q 0,-0.8382 -0.43815,-1.2954 -0.43815,-0.4572 -1.4097,-0.4572 -0.85725,0 -1.39065,0.381 -0.51435,0.36195 -0.8763,0.8763 l -1.4478,-1.2954 q 0.55245,-0.85725 1.46685,-1.3716 0.9144,-0.5334 2.41935,-0.5334 2.0193,0 3.06705,0.9144 1.04775,0.9144 1.04775,2.6289 v 4.6863 h 0.9906 v 1.9431 z m -4.0386,-1.54305 q 0.81915,0 1.39065,-0.36195 0.5715,-0.36195 0.5715,-1.0668 v -1.31445 h -1.5621 q -1.905,0 -1.905,1.2192 v 0.32385 q 0,0.6096 0.381,0.9144 0.40005,0.28575 1.12395,0.28575 z"
         style="font-weight:600;font-family:'IBM Plex Sans';-inkscape-font-specification:'IBM Plex Sans Semi-Bold'"
         id="path344" />
      <path
         d="m 123.62578,276.55212 v -9.9441 h 2.4384 v 2.0574 h 0.0953 q 0.0952,-0.40005 0.28575,-0.762 0.20955,-0.381 0.5334,-0.66675 0.32385,-0.28575 0.762,-0.4572 0.4572,-0.17145 1.04775,-0.17145 h 0.5334 v 2.30505 h -0.762 q -1.23825,0 -1.8669,0.36195 -0.62865,0.36195 -0.62865,1.1811 v 6.096 z"
         style="font-weight:600;font-family:'IBM Plex Sans';-inkscape-font-specification:'IBM Plex Sans Semi-Bold'"
         id="path346" />
      <path
         d="m 134.94149,276.78072 q -1.1049,0 -1.96215,-0.36195 -0.85725,-0.36195 -1.4478,-1.04775 -0.5715,-0.6858 -0.8763,-1.6383 -0.3048,-0.97155 -0.3048,-2.1717 0,-1.20015 0.3048,-2.15265 0.3048,-0.9525 0.8763,-1.61925 0.59055,-0.6858 1.4478,-1.04775 0.85725,-0.36195 1.96215,-0.36195 1.50495,0 2.4765,0.66675 0.9906,0.66675 1.42875,1.84785 l -2.00025,0.89535 q -0.17145,-0.62865 -0.6477,-1.0287 -0.4572,-0.4191 -1.2573,-0.4191 -1.0287,0 -1.54305,0.6477 -0.4953,0.6477 -0.4953,1.69545 v 1.80975 q 0,1.04775 0.4953,1.69545 0.51435,0.62865 1.54305,0.62865 0.8763,0 1.35255,-0.43815 0.47625,-0.4572 0.74295,-1.12395 l 1.8669,0.89535 q -0.4953,1.31445 -1.50495,1.9812 -1.00965,0.6477 -2.45745,0.6477 z"
         style="font-weight:600;font-family:'IBM Plex Sans';-inkscape-font-specification:'IBM Plex Sans Semi-Bold'"
         id="path348" />
      <path
         d="m 140.78985,262.45512 h 2.4384 v 5.81025 h 0.0952 q 0.3048,-0.8001 0.9525,-1.3335 0.66675,-0.55245 1.8288,-0.55245 1.54305,0 2.3622,1.00965 0.81915,1.00965 0.81915,2.87655 v 6.2865 h -2.4384 v -6.03885 q 0,-1.0668 -0.381,-1.6002 -0.381,-0.5334 -1.2573,-0.5334 -0.381,0 -0.74295,0.1143 -0.3429,0.0953 -0.62865,0.3048 -0.2667,0.1905 -0.43815,0.4953 -0.17145,0.28575 -0.17145,0.6858 v 6.57225 h -2.4384 z"
         style="font-weight:600;font-family:'IBM Plex Sans';-inkscape-font-specification:'IBM Plex Sans Semi-Bold'"
         id="path350" />
    </g>
  </g>
</svg>
