<?xml version="1.0" encoding="UTF-8" standalone="no"?>
<svg
   width="160mm"
   height="70mm"
   viewBox="0 0 160 70"
   version="1.1"
   id="svg8"
   sodipodi:docname="rxtx-logo-path.svg"
   inkscape:version="1.2.2 (b0a8486541, 2022-12-01)"
   xmlns:inkscape="http://www.inkscape.org/namespaces/inkscape"
   xmlns:sodipodi="http://sodipodi.sourceforge.net/DTD/sodipodi-0.dtd"
   xmlns="http://www.w3.org/2000/svg"
   xmlns:svg="http://www.w3.org/2000/svg"
   xmlns:rdf="http://www.w3.org/1999/02/22-rdf-syntax-ns#"
   xmlns:cc="http://creativecommons.org/ns#"
   xmlns:dc="http://purl.org/dc/elements/1.1/">
  <sodipodi:namedview
     id="namedview13"
     pagecolor="#ffffff"
     bordercolor="#000000"
     borderopacity="0.25"
     inkscape:showpageshadow="2"
     inkscape:pageopacity="0.0"
     inkscape:pagecheckerboard="0"
     inkscape:deskcolor="#d1d1d1"
     inkscape:document-units="mm"
     showgrid="false"
     inkscape:zoom="2.3901886"
     inkscape:cx="279.89423"
     inkscape:cy="112.33423"
     inkscape:window-width="2541"
     inkscape:window-height="1205"
     inkscape:window-x="1585"
     inkscape:window-y="116"
     inkscape:window-maximized="0"
     inkscape:current-layer="layer1" />
  <defs
     id="defs2" />
  <metadata
     id="metadata5">
    <rdf:RDF>
      <cc:Work
         rdf:about="">
        <dc:format>image/svg+xml</dc:format>
        <dc:type
           rdf:resource="http://purl.org/dc/dcmitype/StillImage" />
      </cc:Work>
    </rdf:RDF>
  </metadata>
  <g
     id="layer1"
     transform="translate(0,-209.5)">
    <g
       aria-label="RxTx"
       id="text12"
       style="font-size:38.1px;line-height:1.25;letter-spacing:0px;word-spacing:0px;fill:#d52b1e;stroke-width:0.264583">
      <path
         d="m 74.305304,257.79691 h -4.3053 v -26.5938 h 11.468099 q 3.5814,0 5.6388,2.1717 2.0574,2.1336 2.0574,5.8293 0,2.8575 -1.3335,4.7625 -1.2954,1.8669 -3.8481,2.6289 l 5.7531,11.2014 h -4.8006 l -5.334,-10.7442 h -5.295899 z m 6.857999,-14.3637 q 1.6383,0 2.5527,-0.8382 0.9144,-0.8763 0.9144,-2.4765 v -1.8288 q 0,-1.6002 -0.9144,-2.4384 -0.9144,-0.8763 -2.5527,-0.8763 h -6.857999 v 8.4582 z"
         style="font-weight:500;font-family:'IBM Plex Sans';-inkscape-font-specification:'IBM Plex Sans Medium'"
         id="path697" />
      <path
         d="m 92.440928,257.79691 6.9723,-10.0203 -6.7818,-9.7917 h 4.8006 l 4.457702,6.8961 h 0.1143 l 4.572,-6.8961 h 4.4196 l -6.7818,9.7536 6.8961,10.0584 h -4.8006 l -4.572,-7.2009 h -0.1143 l -4.762502,7.2009 z"
         style="font-weight:500;font-family:'IBM Plex Sans';-inkscape-font-specification:'IBM Plex Sans Medium'"
         id="path699" />
      <path
         d="m 123.34003,235.01311 v 22.7838 h -4.3053 v -22.7838 h -7.9248 v -3.81 h 20.1549 v 3.81 z"
         style="font-weight:500;font-family:'IBM Plex Sans';-inkscape-font-specification:'IBM Plex Sans Medium'"
         id="path701" />
      <path
         d="m 131.26479,257.79691 6.9723,-10.0203 -6.7818,-9.7917 h 4.8006 l 4.4577,6.8961 h 0.1143 l 4.572,-6.8961 h 4.4196 l -6.7818,9.7536 6.8961,10.0584 h -4.8006 l -4.572,-7.2009 h -0.1143 l -4.7625,7.2009 z"
         style="font-weight:500;font-family:'IBM Plex Sans';-inkscape-font-specification:'IBM Plex Sans Medium'"
         id="path703" />
    </g>
    <g
       id="g4764"
       transform="matrix(0.22913589,-0.13229166,0.13229166,0.22913589,-7.8763003,236.99365)">
      <path
         id="path4744"
         style="fill:none;stroke:#d52b1e;stroke-width:15.1181;stroke-linecap:round;stroke-linejoin:round;stroke-miterlimit:10;stroke-dasharray:none;stroke-opacity:1"
         d="M 226.3858,98 169.6929,-0.195267 H 56.307098 L -0.385803,98 56.307098,196.19527 H 169.6929 Z" />
      <path
         id="path4746"
         style="fill:none;stroke:#d52b1e;stroke-width:15.1181;stroke-linecap:round;stroke-linejoin:round;stroke-miterlimit:10;stroke-dasharray:none;stroke-opacity:1"
         d="M 226.3858,98 H -0.385803" />
      <path
         id="path4748"
         style="fill:none;stroke:#d52b1e;stroke-width:15.1181;stroke-linecap:round;stroke-linejoin:round;stroke-miterlimit:10;stroke-dasharray:none;stroke-opacity:1"
         d="M 169.6929,-0.195267 56.307098,196.19527" />
      <path
         id="path4750"
         style="fill:none;stroke:#d52b1e;stroke-width:15.1181;stroke-linecap:round;stroke-linejoin:round;stroke-miterlimit:10;stroke-dasharray:none;stroke-opacity:1"
         d="M 56.307098,-0.195267 169.6929,196.19527" />
    </g>
  </g>
</svg>
